<?xml version="1.0" encoding="iso-8859-1"?>
<!-- Generator: Adobe Illustrator 19.0.0, SVG Export Plug-In . SVG Version: 6.00 Build 0)  -->
<svg version="1.1" id="Capa_1" xmlns="http://www.w3.org/2000/svg" xmlns:xlink="http://www.w3.org/1999/xlink" x="0px" y="0px"
	 viewBox="0 0 512 512" style="enable-background:new 0 0 512 512;" xml:space="preserve">
<g>
	<g>
		<path d="M437.02,74.981C388.668,26.629,324.38,0,256,0S123.333,26.628,74.981,74.98C26.629,123.333,0,187.62,0,256
			s26.629,132.668,74.981,181.02C123.333,485.372,187.62,512,256,512s132.667-26.629,181.02-74.98
			C485.372,388.668,512,324.38,512,256S485.372,123.333,437.02,74.981z M415.806,415.806C373.121,458.492,316.368,482,256,482
			c-60.367,0-117.121-23.508-159.807-66.194C53.508,373.121,30,316.367,30,256S53.508,138.88,96.194,96.194
			C138.88,53.509,195.633,30,256,30s117.12,23.508,159.806,66.194C458.493,138.88,482,195.634,482,256
			C482,316.366,458.492,373.12,415.806,415.806z"/>
	</g>
</g>
<g>
	<g>
		<path d="M256,59.667C147.742,59.667,59.667,147.741,59.667,256c0,108.258,88.075,196.333,196.333,196.333
			S452.333,364.259,452.333,256S364.259,59.667,256,59.667z M256,422.333c-91.717,0-166.333-74.617-166.333-166.333
			c0-91.717,74.617-166.333,166.333-166.333S422.333,164.283,422.333,256S347.717,422.333,256,422.333z"/>
	</g>
</g>
<g>
	<g>
		<path d="M202.667,161C179.692,161,161,179.692,161,202.667c0,22.975,18.692,41.667,41.667,41.667s41.666-18.691,41.666-41.667
			C244.333,179.691,225.642,161,202.667,161z M202.667,214.333c-6.433,0-11.667-5.233-11.667-11.667
			c0-6.434,5.234-11.666,11.667-11.666c6.433,0,11.666,5.233,11.666,11.667C214.333,209.101,209.1,214.333,202.667,214.333z"/>
	</g>
</g>
<g>
	<g>
		<path d="M309.333,161c-22.976,0-41.667,18.691-41.667,41.667s18.691,41.667,41.667,41.667c22.976,0,41.667-18.691,41.667-41.667
			S332.309,161,309.333,161z M309.333,214.333c-6.434,0-11.667-5.233-11.667-11.667c0-6.434,5.234-11.666,11.667-11.666
			c6.433,0,11.667,5.234,11.667,11.667C321,209.1,315.767,214.333,309.333,214.333z"/>
	</g>
</g>
<g>
	<g>
		<path d="M202.667,267.667c-22.975,0-41.667,18.691-41.667,41.667C161,332.31,179.692,351,202.667,351
			c22.975,0,41.666-18.692,41.666-41.667C244.333,286.358,225.642,267.667,202.667,267.667z M202.667,321
			c-6.433,0-11.667-5.234-11.667-11.667s5.234-11.667,11.667-11.667s11.666,5.233,11.666,11.667
			C214.333,315.767,209.1,321,202.667,321z"/>
	</g>
</g>
<g>
	<g>
		<path d="M309.333,267.667c-22.976,0-41.667,18.691-41.667,41.667c0,22.976,18.692,41.666,41.667,41.666
			C332.309,351,351,332.308,351,309.333C351,286.358,332.309,267.667,309.333,267.667z M309.333,321
			c-6.434,0-11.667-5.234-11.667-11.667s5.233-11.667,11.667-11.667c6.434,0,11.667,5.234,11.667,11.667
			C321,315.766,315.767,321,309.333,321z"/>
	</g>
</g>
<g>
</g>
<g>
</g>
<g>
</g>
<g>
</g>
<g>
</g>
<g>
</g>
<g>
</g>
<g>
</g>
<g>
</g>
<g>
</g>
<g>
</g>
<g>
</g>
<g>
</g>
<g>
</g>
<g>
</g>
</svg>
