<?xml version="1.0" standalone="no"?><svg xmlns="http://www.w3.org/2000/svg" viewBox="0 0 1440 320"><path fill="#baf1e4" fill-opacity="1" d="M0,128L20,149.3C40,171,80,213,120,197.3C160,181,200,107,240,90.7C280,75,320,117,360,112C400,107,440,53,480,42.7C520,32,560,64,600,106.7C640,149,680,203,720,202.7C760,203,800,149,840,117.3C880,85,920,75,960,85.3C1000,96,1040,128,1080,122.7C1120,117,1160,75,1200,69.3C1240,64,1280,96,1320,122.7C1360,149,1400,171,1420,181.3L1440,192L1440,0L1420,0C1400,0,1360,0,1320,0C1280,0,1240,0,1200,0C1160,0,1120,0,1080,0C1040,0,1000,0,960,0C920,0,880,0,840,0C800,0,760,0,720,0C680,0,640,0,600,0C560,0,520,0,480,0C440,0,400,0,360,0C320,0,280,0,240,0C200,0,160,0,120,0C80,0,40,0,20,0L0,0Z"></path></svg>