<?xml version="1.0" standalone="no"?><svg xmlns="http://www.w3.org/2000/svg" viewBox="0 0 1440 320"><path fill="#fa3c5a" fill-opacity="1" d="M0,64L20,96C40,128,80,192,120,208C160,224,200,192,240,170.7C280,149,320,139,360,144C400,149,440,171,480,186.7C520,203,560,213,600,181.3C640,149,680,75,720,80C760,85,800,171,840,186.7C880,203,920,149,960,154.7C1000,160,1040,224,1080,234.7C1120,245,1160,203,1200,176C1240,149,1280,139,1320,144C1360,149,1400,171,1420,181.3L1440,192L1440,0L1420,0C1400,0,1360,0,1320,0C1280,0,1240,0,1200,0C1160,0,1120,0,1080,0C1040,0,1000,0,960,0C920,0,880,0,840,0C800,0,760,0,720,0C680,0,640,0,600,0C560,0,520,0,480,0C440,0,400,0,360,0C320,0,280,0,240,0C200,0,160,0,120,0C80,0,40,0,20,0L0,0Z"></path></svg>