<?xml version="1.0" standalone="no"?><svg xmlns="http://www.w3.org/2000/svg" viewBox="0 0 1440 320"><path fill="#fa3c5a" fill-opacity="1" d="M0,224L20,213.3C40,203,80,181,120,149.3C160,117,200,75,240,58.7C280,43,320,53,360,90.7C400,128,440,192,480,213.3C520,235,560,213,600,192C640,171,680,149,720,128C760,107,800,85,840,90.7C880,96,920,128,960,122.7C1000,117,1040,75,1080,90.7C1120,107,1160,181,1200,202.7C1240,224,1280,192,1320,186.7C1360,181,1400,203,1420,213.3L1440,224L1440,320L1420,320C1400,320,1360,320,1320,320C1280,320,1240,320,1200,320C1160,320,1120,320,1080,320C1040,320,1000,320,960,320C920,320,880,320,840,320C800,320,760,320,720,320C680,320,640,320,600,320C560,320,520,320,480,320C440,320,400,320,360,320C320,320,280,320,240,320C200,320,160,320,120,320C80,320,40,320,20,320L0,320Z"></path></svg>